<?xml version="1.0" encoding="UTF-8" standalone="yes"?>
<svg xmlns="http://www.w3.org/2000/svg" width="250" height="250" viewBox="0 0 250 250" version="1.2">
  <defs>
    <polygon id="baseform" points="0,0 50,0 25,25" />
  </defs>

  <g fill="#000" stroke="none">
    <use href="#baseform" transform="translate(50, 0) rotate(90) scale(1,-1)" />
    <use href="#baseform" transform="translate(75, 25) rotate(90)" />
    <use href="#baseform" transform="translate(50, 50) rotate(90) scale(1,-1)" />
    <use href="#baseform" transform="translate(50, 100) scale(1,-1)" />
    <use href="#baseform" transform="translate(0, 100)" />
    <use href="#baseform" transform="translate(50, 100)" />
    <use href="#baseform" transform="translate(75, 125) scale(1,-1)" />
    <use href="#baseform" transform="translate(100, 100)" />
    <use href="#baseform" transform="translate(75, 125)" />
    <use href="#baseform" transform="translate(100, 150) scale(1,-1)" />
    <use href="#baseform" transform="translate(50, 150) rotate(90)" />
    <use href="#baseform" transform="translate(50, 150) rotate(90) scale(1,-1)" />
    <use href="#baseform" transform="translate(100, 150)" />
    <use href="#baseform" transform="translate(125, 175) scale(1,-1)" />
    <use href="#baseform" transform="translate(0, 200) scale(1,-1)" />
    <use href="#baseform" transform="translate(50, 200) scale(1,-1)" />
    <use href="#baseform" transform="translate(125, 175)" />
    <use href="#baseform" transform="translate(150, 200) scale(1,-1)" />
    <use href="#baseform" transform="translate(50, 200)" />
    <use href="#baseform" transform="translate(75, 225) scale(1,-1)" />
    <use href="#baseform" transform="translate(150, 200)" />
    <use href="#baseform" transform="translate(75, 225)" />
    <use href="#baseform" transform="translate(200, 200) rotate(90)" />
  </g>
</svg>
